# xmcd CD database file
#
# Track frame offsets:
#	150
#	30762
#	54007
#	84272
#	116510
#	139235
#	165052
#	188447
#	216667
#
# Disc length: 3373 seconds
#
# Revision: 1
# Processed by: cddbd v1.5.2PL0 Copyright (c) Steve Scherf et al.
# Submitted via: CDex 1.77
#
DISCID=610d2b09
DTITLE=Jeri Brown and Jimmy Rowles - A Timeless Place
DYEAR=1994
DGENRE=Jazz
TTITLE0=Morning Star
TTITLE1=After School
TTITLE2=Baby, Don't Quit Now
TTITLE3=A Timeless Place
TTITLE4=Old Orleans
TTITLE5=Music's Only Thing That's On My Mind
TTITLE6=Fraser
TTITLE7=My Mother's Love
TTITLE8=Looking Back
EXTD=YEAR: 1994
EXTT0=
EXTT1=
EXTT2=
EXTT3=
EXTT4=
EXTT5=
EXTT6=
EXTT7=
EXTT8=
PLAYORDER=
